<?xml version="1.0" standalone="no"?>
<!DOCTYPE svg PUBLIC "-//W3C//DTD SVG 20010904//EN"
 "http://www.w3.org/TR/2001/REC-SVG-20010904/DTD/svg10.dtd">
<svg version="1.0" xmlns="http://www.w3.org/2000/svg"
 width="2880.000000pt" height="1800.000000pt" viewBox="0 0 2880.000000 1800.000000"
 preserveAspectRatio="xMidYMid meet">

<g transform="translate(0.000000,1800.000000) scale(0.100000,-0.100000)"
fill="#000000" stroke="none">
<path d="M0 17480 l0 -520 14400 0 14400 0 0 520 0 520 -14400 0 -14400 0 0
-520z m26832 183 c15 -15 28 -33 28 -42 0 -10 -7 -8 -25 9 l-25 23 0 -101 c0
-84 -3 -102 -15 -102 -12 0 -15 18 -15 102 l0 101 -25 -23 c-20 -18 -25 -20
-25 -8 0 15 53 68 68 68 3 0 19 -12 34 -27z m1503 -40 c7 -25 15 -33 31 -33
45 0 54 -23 54 -135 0 -135 0 -135 -135 -135 -113 0 -135 9 -135 56 0 20 -5
24 -28 24 -15 0 -33 5 -40 12 -17 17 -16 220 0 236 9 9 47 12 128 10 l115 -3
10 -32z m-20128 -4 l43 -18 0 -88 c0 -103 -6 -116 -79 -163 l-50 -32 -50 28
c-82 44 -86 52 -86 162 l0 97 60 22 c65 24 91 23 162 -8z m17943 10 c82 -46
106 -160 50 -237 -34 -47 -52 -59 -108 -68 -55 -9 -104 10 -146 56 -56 62 -58
146 -6 212 45 58 142 75 210 37z m-25366 5 c24 -9 24 -279 0 -288 -9 -3 -87
-6 -174 -6 -131 0 -161 3 -174 16 -13 12 -16 39 -16 130 0 64 5 124 10 135 10
18 23 19 175 19 90 0 170 -3 179 -6z m696 -16 c0 -7 -28 -37 -62 -68 l-62 -56
62 -59 c58 -55 76 -85 51 -85 -6 0 -43 31 -83 70 l-71 69 70 71 c66 67 95 84
95 58z m18532 -25 l28 -27 -27 -28 c-33 -35 -51 -37 -29 -3 16 24 16 25 -5 25
-27 0 -79 -52 -79 -80 0 -26 18 -61 39 -77 39 -30 112 0 125 52 4 14 11 25 16
25 6 0 8 -11 4 -27 -21 -89 -142 -111 -187 -34 -9 16 -17 43 -17 59 0 39 41
89 81 97 23 5 28 10 20 18 -12 12 -15 27 -4 27 4 0 20 -12 35 -27z m7508 -33
l0 -60 61 0 c81 0 77 -24 -4 -28 l-57 -3 0 -60 c0 -80 -24 -77 -28 4 l-3 56
-56 3 c-81 4 -84 28 -4 28 l61 0 0 60 c0 47 3 60 15 60 12 0 15 -13 15 -60z
m-773 13 c3 -7 -9 -13 -29 -15 l-33 -3 -3 -102 -3 -103 115 0 115 0 3 89 c4
117 3 121 -34 121 -19 0 -28 4 -25 13 4 14 55 11 75 -5 8 -7 12 -44 12 -119 0
-97 -2 -109 -19 -119 -11 -5 -69 -10 -130 -10 -144 0 -143 -1 -139 138 3 102
4 107 28 119 29 15 62 13 67 -4z"/>
<path d="M28104 17627 c-2 -7 -3 -56 -2 -108 3 -89 4 -94 26 -97 21 -3 22 0
22 67 0 90 10 101 96 101 62 0 65 1 62 23 -3 21 -8 22 -101 25 -75 2 -99 0
-103 -11z"/>
<path d="M28180 17455 l0 -105 105 0 105 0 0 105 0 105 -105 0 -105 0 0 -105z"/>
<path d="M8120 17485 l0 -136 31 18 c62 36 79 67 79 144 0 76 -1 77 -87 103
l-23 7 0 -136z"/>
<path d="M26010 17611 c-133 -70 -88 -261 60 -261 141 0 185 202 57 261 -53
23 -74 24 -117 0z m70 -103 c0 -59 1 -60 18 -45 36 33 46 17 12 -18 -19 -19
-39 -35 -45 -35 -16 0 -70 58 -62 67 4 3 15 -1 25 -10 10 -10 22 -17 25 -17 4
0 7 27 7 60 0 33 4 60 10 60 6 0 10 -27 10 -62z"/>
<path d="M478 17613 l-28 -4 0 -120 0 -119 50 0 51 0 -3 123 c-3 134 -1 131
-70 120z m35 -50 c-7 -2 -21 -2 -30 0 -10 3 -4 5 12 5 17 0 24 -2 18 -5z m7
-43 c0 -5 -11 -10 -25 -10 -14 0 -25 5 -25 10 0 6 11 10 25 10 14 0 25 -4 25
-10z m-7 -47 c-7 -2 -21 -2 -30 0 -10 3 -4 5 12 5 17 0 24 -2 18 -5z"/>
<path d="M574 17611 c-2 -2 -4 -58 -4 -123 l0 -119 103 3 102 3 3 113 3 112
-27 11 c-25 9 -170 9 -180 0z"/>
</g>
</svg>
