<?xml version="1.0" standalone="no"?>
<!DOCTYPE svg PUBLIC "-//W3C//DTD SVG 20010904//EN"
 "http://www.w3.org/TR/2001/REC-SVG-20010904/DTD/svg10.dtd">
<svg version="1.0" xmlns="http://www.w3.org/2000/svg"
 width="413.000000pt" height="152.000000pt" viewBox="0 0 413.000000 152.000000"
 preserveAspectRatio="xMidYMid meet">

<g transform="translate(0.000000,152.000000) scale(0.100000,-0.100000)"
fill="#000000" stroke="none">
<path d="M460 1294 c-46 -20 -77 -50 -103 -99 -21 -39 -22 -51 -22 -385 0
-334 1 -346 22 -385 27 -50 58 -80 105 -100 31 -12 93 -15 373 -15 365 0 379
2 439 58 64 60 66 72 66 442 0 370 -2 382 -66 442 -60 56 -73 58 -441 58 -279
-1 -344 -3 -373 -16z m523 -55 c118 -40 205 -116 263 -234 62 -126 59 -278 -9
-408 -138 -264 -495 -322 -712 -116 -67 64 -121 166 -138 262 -32 188 79 395
255 477 111 52 222 58 341 19z"/>
<path d="M742 1091 c-60 -21 -118 -70 -138 -118 -8 -18 -14 -59 -14 -93 0 -53
6 -71 51 -157 37 -71 54 -115 59 -158 l7 -60 2 60 c1 45 -5 71 -21 100 -64
119 -77 149 -83 188 -9 57 9 119 46 161 108 123 333 90 368 -54 6 -25 18 -65
27 -90 28 -77 28 -97 5 -109 -17 -9 -21 -21 -21 -59 0 -57 -19 -87 -59 -95
-34 -7 -65 -47 -58 -74 4 -16 5 -16 11 2 15 40 22 47 60 60 49 17 56 28 56 90
0 42 4 53 28 71 26 21 26 24 13 56 -7 18 -24 70 -36 116 -27 99 -55 133 -132
162 -66 25 -102 25 -171 1z"/>
<path d="M862 1028 c-7 -7 -12 -18 -12 -24 0 -7 -10 -14 -22 -16 -15 -2 -23
-10 -23 -23 0 -13 8 -21 23 -23 13 -2 22 -10 22 -21 0 -40 25 -42 67 -6 33 28
40 40 39 69 -1 19 -4 38 -8 41 -12 12 -75 14 -86 3z m75 -43 c-2 -23 -12 -40
-34 -59 l-32 -27 -3 23 c-2 15 -11 24 -25 26 -29 4 -30 18 -2 25 11 3 23 14
25 24 4 14 15 19 39 20 32 1 34 -1 32 -32z"/>
<path d="M717 903 c-12 -11 -8 -41 6 -46 10 -4 10 -7 0 -18 -7 -7 -13 -21 -13
-31 0 -15 9 -18 55 -18 48 0 60 4 80 26 30 33 31 40 5 56 -11 7 -20 18 -20 25
0 16 -32 17 -48 1 -9 -9 -15 -9 -24 0 -13 13 -31 16 -41 5z m41 -25 c9 -9 15
-9 24 0 17 17 38 15 38 -3 0 -8 7 -15 15 -15 8 0 15 -5 15 -10 0 -6 -7 -13
-15 -16 -8 -4 -15 -12 -15 -20 0 -10 -13 -14 -45 -14 -49 0 -50 1 -34 32 8 14
8 23 0 31 -6 6 -11 15 -11 19 0 12 14 10 28 -4z"/>
<path d="M1540 810 c0 -116 2 -140 15 -140 12 0 15 22 17 117 l3 117 44 -67
c24 -37 47 -67 52 -67 5 0 28 29 51 65 24 35 46 65 51 65 4 0 7 -52 7 -115 0
-96 3 -115 15 -115 13 0 15 22 15 140 l0 140 -24 0 c-18 0 -33 -15 -66 -65
-23 -36 -44 -65 -45 -65 -2 0 -24 29 -50 65 -30 42 -53 65 -66 65 -18 0 -19
-8 -19 -140z"/>
<path d="M3070 920 c0 -5 -10 -20 -22 -32 -19 -19 -20 -22 -5 -33 13 -9 17
-28 17 -79 0 -37 5 -76 10 -86 13 -24 74 -36 106 -21 34 15 20 33 -19 26 -52
-9 -62 5 -62 87 l0 73 43 -3 c33 -3 42 0 42 12 0 12 -11 16 -45 16 -41 0 -45
2 -45 25 0 14 -4 25 -10 25 -5 0 -10 -4 -10 -10z"/>
<path d="M1935 883 c-58 -16 -92 -68 -82 -129 8 -47 30 -71 79 -86 102 -30
189 62 146 156 -20 44 -90 73 -143 59z m91 -47 c58 -49 20 -146 -57 -146 -21
0 -40 10 -61 30 -25 26 -29 36 -24 63 13 70 90 98 142 53z"/>
<path d="M2215 883 c-11 -3 -28 -12 -37 -21 -16 -14 -18 -14 -18 1 0 10 -7 17
-15 17 -12 0 -15 -18 -15 -105 0 -87 3 -105 15 -105 12 0 15 14 15 64 0 35 3
72 6 81 9 24 62 48 90 41 32 -8 44 -42 44 -122 0 -50 3 -64 15 -64 12 0 15 15
15 74 0 69 2 76 26 95 33 26 58 27 84 1 16 -16 20 -33 20 -95 0 -60 3 -75 15
-75 21 0 21 156 0 187 -23 33 -68 38 -117 14 -36 -18 -44 -19 -58 -7 -18 17
-58 26 -85 19z"/>
<path d="M2605 876 c-63 -28 -87 -88 -61 -150 23 -56 103 -82 170 -56 46 17
29 30 -31 24 -50 -5 -62 -3 -85 16 -16 12 -28 30 -28 41 0 17 8 19 90 19 l90
0 0 29 c0 65 -79 107 -145 77z m96 -37 c33 -33 19 -44 -59 -47 -81 -3 -93 10
-46 47 34 27 78 27 105 0z"/>
<path d="M2875 883 c-11 -3 -28 -12 -37 -21 -16 -14 -18 -14 -18 1 0 10 -7 17
-15 17 -12 0 -15 -18 -15 -105 0 -87 3 -105 15 -105 12 0 15 14 15 68 0 75 17
106 65 118 61 15 85 -19 85 -122 0 -50 3 -64 15 -64 12 0 15 15 15 79 0 69 -3
84 -22 105 -23 26 -67 39 -103 29z"/>
<path d="M3547 871 c-29 -15 -37 -16 -37 -5 0 8 -7 14 -15 14 -12 0 -15 -18
-15 -105 0 -98 1 -105 20 -105 18 0 20 7 20 74 0 69 2 76 26 95 33 26 58 27
84 1 16 -16 20 -33 20 -95 0 -60 3 -75 15 -75 12 0 15 15 15 73 0 81 10 99 63
112 20 5 33 2 47 -10 17 -15 20 -31 20 -97 0 -63 3 -78 15 -78 24 0 21 171 -3
193 -30 28 -73 30 -116 8 -22 -12 -42 -17 -45 -12 -8 12 -47 31 -63 31 -8 0
-30 -9 -51 -19z"/>
<path d="M3230 795 c0 -78 2 -88 25 -110 29 -30 79 -33 115 -8 17 12 25 13 28
5 2 -7 10 -12 18 -12 11 0 14 21 14 105 0 87 -3 105 -15 105 -12 0 -15 -14
-15 -70 0 -62 -3 -74 -25 -95 -29 -30 -75 -33 -98 -7 -13 14 -17 38 -17 95 0
62 -3 77 -15 77 -12 0 -15 -16 -15 -85z"/>
</g>
</svg>
