<?xml version="1.0" standalone="no"?>
<!DOCTYPE svg PUBLIC "-//W3C//DTD SVG 20010904//EN"
 "http://www.w3.org/TR/2001/REC-SVG-20010904/DTD/svg10.dtd">
<svg version="1.0" xmlns="http://www.w3.org/2000/svg"
 width="134.000000pt" height="136.000000pt" viewBox="0 0 134.000000 136.000000"
 preserveAspectRatio="xMidYMid meet">
<metadata>
Created by potrace 1.10, written by Peter Selinger 2001-2011
</metadata>
<g transform="translate(0.000000,136.000000) scale(0.050000,-0.050000)"
fill="#000000" stroke="none">
<path d="M465 2700 c-241 -33 -427 -215 -455 -445 -38 -314 -1 -1803 47 -1895
80 -154 180 -239 332 -282 93 -27 1760 -24 1886 3 115 24 281 154 338 264 67
130 91 1736 29 1984 -39 157 -178 302 -340 354 -88 28 -1647 42 -1837 17z
m1195 -152 c1335 -397 1060 -2370 -330 -2368 -926 1 -1511 1023 -1035 1810
294 487 845 713 1365 558z"/>
<path d="M1105 2143 c-421 -148 -540 -501 -317 -943 52 -104 117 -253 143
-330 48 -139 48 -139 48 -56 1 64 -30 148 -129 348 -159 321 -176 482 -75 667
169 306 616 395 899 179 151 -115 319 -674 228 -756 -26 -24 -43 -75 -52 -158
-17 -155 -50 -207 -159 -254 -98 -42 -151 -106 -150 -179 1 -47 4 -44 41 25
29 56 69 89 153 130 126 59 140 85 143 255 2 85 12 111 62 159 80 76 69 141
-94 576 -112 301 -430 445 -741 337z"/>
<path d="M1405 1967 c-14 -6 -25 -24 -25 -40 0 -16 -27 -44 -60 -63 -73 -41
-77 -97 -11 -127 27 -12 58 -48 69 -80 26 -75 56 -72 169 16 102 80 141 264
61 295 -37 14 -167 13 -203 -1z m192 -74 c12 -67 -16 -130 -92 -201 l-75 -71
-16 59 c-8 33 -26 60 -40 60 -77 1 -79 38 -6 107 109 103 214 124 229 46z"/>
<path d="M1013 1627 c-23 -23 -14 -103 12 -113 20 -7 20 -17 0 -51 -74 -125
165 -190 302 -81 140 110 9 322 -147 238 -25 -13 -42 -13 -50 0 -14 22 -96 27
-117 7z m187 -52 c43 29 48 29 78 -8 18 -21 49 -46 71 -54 37 -14 36 -17 -15
-65 -30 -27 -54 -58 -54 -69 0 -10 -51 -19 -112 -19 l-113 0 13 55 c18 72 18
86 0 145 -15 49 -15 49 36 16 47 -31 54 -31 96 -1z"/>
</g>
</svg>
